<svg xmlns="http://www.w3.org/2000/svg" xmlns:xlink="http://www.w3.org/1999/xlink" width="40" zoomAndPan="magnify" viewBox="0 0 30 30.000001" height="40" preserveAspectRatio="xMidYMid meet" version="1.0"><defs><clipPath id="633ae58ccf"><path d="M 0.5 0 L 29.496094 0 L 29.496094 29.03125 L 0.5 29.03125 Z M 0.5 0 " clip-rule="nonzero"/></clipPath></defs><g clip-path="url(#633ae58ccf)"><path fill="#13141f" d="M 26.113281 29.03125 L 3.886719 29.03125 C 2.015625 29.03125 0.5 27.515625 0.5 25.644531 L 0.5 3.386719 C 0.5 1.515625 2.015625 0 3.886719 0 L 26.113281 0 C 27.984375 0 29.496094 1.515625 29.496094 3.386719 L 29.496094 25.644531 C 29.496094 27.515625 27.984375 29.03125 26.113281 29.03125 " fill-opacity="1" fill-rule="nonzero"/></g><path fill="#db3a9c" d="M 16.035156 10.058594 L 15.761719 9.179688 L 16.355469 9.957031 L 14.960938 11.792969 Z M 12.59375 8.992188 L 12.445312 10.164062 L 13.816406 6.605469 L 13.6875 8.300781 L 14.296875 8.195312 L 13.6875 10.164062 L 14.324219 9.957031 L 13.140625 11.351562 L 14.324219 11.714844 L 13.632812 12.148438 L 15.425781 12.148438 L 16.597656 10.628906 L 16.777344 11.144531 L 17.839844 10.785156 L 16.960938 12.148438 L 19.921875 12.148438 L 19.179688 11.359375 L 18.886719 11.820312 L 19.085938 11.019531 L 19.945312 12.148438 L 20.335938 12.148438 L 19.160156 10.773438 L 18.34375 10.351562 L 18.523438 10.792969 L 17.863281 9.945312 L 17.050781 8.992188 L 16.382812 9.613281 L 15.808594 8.769531 L 15.632812 9.179688 L 15.503906 8.320312 L 13.816406 5.839844 L 12.777344 7.417969 L 12.648438 8.257812 L 12.484375 7.863281 L 9.664062 12.148438 L 9.675781 12.148438 L 12.59375 8.992188 " fill-opacity="1" fill-rule="nonzero"/><path fill="#db3a9c" d="M 25.496094 12.894531 C 25.496094 12.894531 15.410156 13 15.070312 13 C 14.730469 13 6.671875 12.894531 6.671875 12.894531 C 6.671875 12.894531 14.730469 12.804688 15.070312 12.804688 C 15.410156 12.804688 25.496094 12.894531 25.496094 12.894531 " fill-opacity="1" fill-rule="nonzero"/><path fill="#db3a9c" d="M 24.277344 12.996094 C 24.277344 12.996094 14.316406 13.054688 13.980469 13.054688 C 13.644531 13.054688 5.683594 12.996094 5.683594 12.996094 C 5.683594 12.996094 13.644531 12.949219 13.980469 12.949219 C 14.316406 12.949219 24.277344 12.996094 24.277344 12.996094 " fill-opacity="1" fill-rule="nonzero"/><path fill="#db3a9c" d="M 20.953125 12.785156 C 20.953125 12.785156 13.054688 12.835938 12.789062 12.835938 C 12.523438 12.835938 6.210938 12.785156 6.210938 12.785156 C 6.210938 12.785156 12.523438 12.738281 12.789062 12.738281 C 13.054688 12.738281 20.953125 12.785156 20.953125 12.785156 " fill-opacity="1" fill-rule="nonzero"/><path fill="#db3a9c" d="M 21.734375 12.714844 C 21.734375 12.714844 14.277344 12.769531 14.027344 12.769531 C 13.777344 12.769531 7.820312 12.714844 7.820312 12.714844 C 7.820312 12.714844 13.777344 12.667969 14.027344 12.667969 C 14.277344 12.667969 21.734375 12.714844 21.734375 12.714844 " fill-opacity="1" fill-rule="nonzero"/><path fill="#db3a9c" d="M 25.066406 13.050781 C 25.066406 13.050781 17.609375 13.101562 17.359375 13.101562 C 17.109375 13.101562 11.152344 13.050781 11.152344 13.050781 C 11.152344 13.050781 17.109375 13.003906 17.359375 13.003906 C 17.609375 13.003906 25.066406 13.050781 25.066406 13.050781 " fill-opacity="1" fill-rule="nonzero"/><path fill="#db3a9c" d="M 25.066406 12.601562 C 25.066406 12.601562 17.609375 12.652344 17.359375 12.652344 C 17.109375 12.652344 11.152344 12.601562 11.152344 12.601562 C 11.152344 12.601562 17.109375 12.554688 17.359375 12.554688 C 17.609375 12.554688 25.066406 12.601562 25.066406 12.601562 " fill-opacity="1" fill-rule="nonzero"/><path fill="#db3a9c" d="M 20.539062 12.535156 C 20.539062 12.535156 13.085938 12.589844 12.832031 12.589844 C 12.582031 12.589844 6.625 12.535156 6.625 12.535156 C 6.625 12.535156 12.582031 12.488281 12.832031 12.488281 C 13.085938 12.488281 20.539062 12.535156 20.539062 12.535156 " fill-opacity="1" fill-rule="nonzero"/><path fill="#db3a9c" d="M 19.40625 12.441406 C 19.40625 12.441406 11.953125 12.492188 11.699219 12.492188 C 11.449219 12.492188 5.492188 12.441406 5.492188 12.441406 C 5.492188 12.441406 11.449219 12.394531 11.699219 12.394531 C 11.953125 12.394531 19.40625 12.441406 19.40625 12.441406 " fill-opacity="1" fill-rule="nonzero"/><path fill="#db3a9c" d="M 18.417969 12.363281 C 18.417969 12.363281 10.964844 12.417969 10.710938 12.417969 C 10.460938 12.417969 4.503906 12.363281 4.503906 12.363281 C 4.503906 12.363281 10.460938 12.316406 10.710938 12.316406 C 10.964844 12.316406 18.417969 12.363281 18.417969 12.363281 " fill-opacity="1" fill-rule="nonzero"/><path fill="#db3a9c" d="M 16.984375 12.285156 C 16.984375 12.285156 11.433594 12.335938 11.246094 12.335938 C 11.058594 12.335938 6.625 12.285156 6.625 12.285156 C 6.625 12.285156 11.058594 12.238281 11.246094 12.238281 C 11.433594 12.238281 16.984375 12.285156 16.984375 12.285156 " fill-opacity="1" fill-rule="nonzero"/><path fill="#db3a9c" d="M 22.339844 12.667969 C 22.339844 12.667969 14.886719 12.71875 14.632812 12.71875 C 14.382812 12.71875 8.425781 12.667969 8.425781 12.667969 C 8.425781 12.667969 14.382812 12.621094 14.632812 12.621094 C 14.886719 12.621094 22.339844 12.667969 22.339844 12.667969 " fill-opacity="1" fill-rule="nonzero"/><path fill="#3f57b0" d="M 13.964844 16.542969 L 14.238281 17.929688 L 13.644531 16.707031 L 15.039062 13.816406 Z M 17.402344 18.222656 L 17.554688 16.378906 L 16.179688 21.988281 L 16.3125 19.3125 L 15.703125 19.484375 L 16.3125 16.378906 L 15.675781 16.707031 L 16.859375 14.507812 L 15.675781 13.9375 L 16.367188 13.253906 L 14.574219 13.253906 L 13.402344 15.648438 L 13.222656 14.832031 L 12.160156 15.402344 L 13.039062 13.253906 L 10.078125 13.253906 L 10.820312 14.496094 L 11.109375 13.769531 L 10.914062 15.03125 L 10.054688 13.253906 L 9.664062 13.253906 L 10.839844 15.421875 L 11.65625 16.085938 L 11.476562 15.390625 L 12.136719 16.722656 L 12.949219 18.222656 L 13.617188 17.246094 L 14.191406 18.578125 L 14.367188 17.929688 L 14.496094 19.28125 L 16.183594 23.191406 L 17.222656 20.707031 L 17.347656 19.382812 L 17.515625 20.003906 L 20.335938 13.253906 L 20.324219 13.253906 L 17.402344 18.222656 " fill-opacity="1" fill-rule="nonzero"/></svg>